<svg width="40" height="40" viewBox="0 0 40 40" fill="none" xmlns="http://www.w3.org/2000/svg">
<g clip-path="url(#clip0_1203_819)">
<path d="M34.12 12.4901L20.41 8.81006L27.86 13.2601V31.9901H34.12V12.4901Z" fill="#FFA100"/>
<path d="M28.89 32.0399H2.23999V13.4399L15.57 4.17993L28.9 13.4399V32.0299L28.89 32.0399ZM4.30999 29.9599H26.82V14.5199L15.57 6.69993L4.31999 14.5199V29.9599H4.30999Z" fill="#003045"/>
<path d="M37.81 31.42H35.81V29.42H37.81V31.42ZM37.81 27.42H35.81V25.42H37.81V27.42ZM37.81 23.42H35.81V21.42H37.81V23.42ZM37.81 19.42H35.81V17.42H37.81V19.42ZM37.81 15.42H35.81V13.42H37.81V15.42ZM36.57 11.46L36.4 11.42H35.81V11.28L35.53 11.21L36.01 9.26997L37.81 9.70997V11.42L36.57 11.46ZM33.58 10.73L31.64 10.25L32.12 8.30997L34.06 8.78997L33.58 10.73ZM29.7 9.76997L27.76 9.28997L28.24 7.34997L30.18 7.82997L29.7 9.76997ZM25.82 8.80997L23.88 8.32997L24.36 6.38997L26.3 6.86997L25.82 8.80997ZM21.93 7.84997L19.99 7.36997L20.47 5.42997L22.41 5.90997L21.93 7.84997ZM18.05 6.88997L16.11 6.40997L16.59 4.46997L18.53 4.94997L18.05 6.88997Z" fill="#003045"/>
<path d="M14.59 16H10.56V20.03H14.59V16Z" fill="#80C3FF"/>
<path d="M20.57 16H16.54V20.03H20.57V16Z" fill="#80C3FF"/>
<path d="M14.59 21.98H10.56V26.01H14.59V21.98Z" fill="#80C3FF"/>
<path d="M20.57 21.98H16.54V26.01H20.57V21.98Z" fill="#80C3FF"/>
</g>
<defs>
<clipPath id="clip0_1203_819">
<rect width="40" height="40" fill="white"/>
</clipPath>
</defs>
</svg>
