<svg width="20" height="37" viewBox="0 0 20 37" fill="none" xmlns="http://www.w3.org/2000/svg">
<g clip-path="url(#clip0_2371_894)">
<mask id="mask0_2371_894" style="mask-type:luminance" maskUnits="userSpaceOnUse" x="0" y="0" width="20" height="37">
<path d="M19.0968 0H0V37H19.0968V0Z" fill="white"/>
</mask>
<g mask="url(#mask0_2371_894)">
<path d="M16.1837 20.5468C15.7791 20.3106 15.3745 20.1532 15.0508 20.0745V11.4149C15.0508 9.91913 13.7561 8.65955 12.2187 8.65955C10.6812 8.65955 9.38654 9.91913 9.38654 11.4149V14.5638L9.30562 14.4851C8.98195 14.0128 8.49644 13.6979 7.93001 13.5404C7.36358 13.4617 6.79715 13.5404 6.31164 13.8553L5.82613 14.1702C5.17878 14.5638 4.8551 15.2723 4.8551 15.9021C4.53143 15.9021 4.20776 16.0596 3.88408 16.217L3.39857 16.5319C2.75122 16.9255 2.42755 17.634 2.42755 18.2638C2.10387 18.2638 1.7802 18.4213 1.45653 18.5787L0.971015 18.8936C-7.7486e-06 19.5234 -0.323682 20.783 0.323666 21.8064L1.13285 23.066C0.971015 24.1681 0.485503 27.1596 1.29469 28.734C2.10387 30.2298 3.64133 34.166 3.72224 34.166C3.88408 34.4809 4.12684 34.6383 4.45051 34.6383C4.53143 34.6383 4.61235 34.6383 4.77419 34.5596C5.17878 34.4021 5.42153 33.9298 5.2597 33.5362C5.17878 33.3787 3.64133 29.5213 2.83214 27.9468C2.50847 27.3957 2.50847 26.2149 2.58939 25.034L3.39857 26.2149C3.80316 26.8447 4.53143 27.1596 5.17878 27.1596C5.58337 27.1596 5.98796 27.0809 6.31164 26.8447L6.79715 26.5298C7.28266 26.2149 7.60634 25.7426 7.76817 25.1915C7.76817 25.034 7.84909 24.8766 7.84909 24.7192C8.17276 24.7192 8.49644 24.6404 8.82011 24.4043L9.30562 24.0894C9.79114 23.7745 10.1148 23.3021 10.1957 22.8298C10.1957 22.9085 10.1957 22.9872 10.2766 22.9872C10.6812 24.0106 11.9759 24.7979 12.947 25.3489C12.6233 25.5064 12.2187 25.7426 11.5713 25.9C8.65828 26.8447 8.57736 30.466 8.57736 30.5447C8.57736 31.017 8.90103 31.3319 9.38654 31.3319C9.79114 31.3319 10.1957 31.017 10.1957 30.5447C10.1957 30.5447 10.1957 27.9468 12.0569 27.317C14.7272 26.4511 15.0508 25.4277 15.0508 25.034V24.483L14.5653 24.2468C13.5943 23.8532 11.9759 22.9872 11.7332 22.3574C11.7332 22.2787 11.7332 22.2 11.7332 22.2C12.2996 21.0192 12.7042 20.3894 15.5364 21.7277C17.6402 22.7511 17.6402 22.7511 17.5593 24.1681C17.5593 24.5617 17.4784 25.1128 17.4784 25.7426C17.4784 27.2383 16.0219 29.2851 15.1318 30.466C14.6462 31.1745 14.4035 31.4894 14.2417 31.8043C13.4325 34.2447 13.3516 35.8979 13.3516 35.9766C13.3516 36.4489 13.6752 36.7638 14.1607 36.7638C14.5653 36.7638 14.9699 36.4489 14.9699 35.9766C14.9699 35.9766 14.9699 34.4809 15.6982 32.2766C15.7791 32.1192 16.1028 31.7255 16.3455 31.3319C17.3975 29.9149 19.0158 27.7106 19.0158 25.7426C19.0158 25.1128 19.0158 24.6404 19.0968 24.2468C19.2586 22.3574 18.854 21.8851 16.1837 20.5468ZM6.71623 15.5085L7.20174 15.1936C7.28266 15.1149 7.36358 15.1149 7.52542 15.1149C7.68725 15.1149 7.84909 15.1936 8.01093 15.3511L11.0049 19.8383C11.1668 20.0745 11.0858 20.3894 10.8431 20.5468L10.3576 20.8617C10.1148 21.0192 9.79114 20.9404 9.6293 20.7043L6.63531 16.217C6.39256 15.9809 6.47348 15.666 6.71623 15.5085ZM5.90705 25.2702L5.42153 25.5851C5.17878 25.7426 4.8551 25.6638 4.69327 25.4277L2.83214 22.5936C2.75122 22.4362 2.75122 22.3574 2.58939 22.2787L1.69928 20.9404C1.53744 20.7043 1.61836 20.3894 1.86112 20.2319L2.34663 19.917C2.42755 19.8383 2.50847 19.8383 2.6703 19.8383C2.83214 19.8383 2.99398 19.917 3.15582 20.0745L6.1498 24.5617C6.1498 24.7979 6.1498 25.1128 5.90705 25.2702ZM8.3346 22.9085L7.84909 23.2234C7.60634 23.3809 7.28266 23.3021 7.12082 23.066L4.12684 18.5787C3.965 18.3426 4.04592 18.0277 4.28867 17.8702L4.77419 17.5553C4.8551 17.4766 4.93602 17.4766 5.09786 17.4766C5.2597 17.4766 5.42153 17.5553 5.58337 17.7128L8.57736 22.2C8.57736 22.4362 8.57736 22.7511 8.3346 22.9085ZM12.5424 19.6809C12.4614 19.4447 12.3805 19.2085 12.2187 18.9723L10.924 17.0043V11.4149C10.924 10.7851 11.4904 10.234 12.1378 10.234C12.7851 10.234 13.3516 10.7851 13.3516 11.4149V19.6021C13.0279 19.6021 12.7851 19.6021 12.5424 19.6809Z" fill="#003045"/>
<path d="M12.5424 5.51064C14.1065 5.51064 15.3745 4.27704 15.3745 2.75532C15.3745 1.2336 14.1065 0 12.5424 0C10.9782 0 9.71021 1.2336 9.71021 2.75532C9.71021 4.27704 10.9782 5.51064 12.5424 5.51064Z" fill="#1A8714"/>
</g>
</g>
<defs>
<clipPath id="clip0_2371_894">
<rect width="20" height="37" fill="white"/>
</clipPath>
</defs>
</svg>
